Coordinates
version=1
nRows=15
nColumns=34
inDegrees=yes

Units are S.I. units (second, meters, Newtons, ...)
If the header above contains a line with 'inDegrees', this indicates whether rotational values are in degrees (yes) or radians (no).

endheader
time	pelvis_tilt	pelvis_list	pelvis_rotation	pelvis_tx	pelvis_ty	pelvis_tz	hip_flexion_r	hip_adduction_r	hip_rotation_r	knee_angle_r	ankle_angle_r	subtalar_angle_r	mtp_angle_r	hip_flexion_l	hip_adduction_l	hip_rotation_l	knee_angle_l	ankle_angle_l	subtalar_angle_l	mtp_angle_l	lumbar_extension	lumbar_bending	lumbar_rotation	arm_flex_r	arm_add_r	arm_rot_r	elbow_flex_r	pro_sup_r	arm_flex_l	arm_add_l	arm_rot_l	elbow_flex_l	pro_sup_l
      2.13333330	     -0.70123686	      4.22238175	    -25.56020113	      0.09024785	      0.99807552	     -0.04374798	     -3.62720045	     -2.11290775	     -5.92889410	      4.46002180	     11.05209803	      3.21537071	      0.00000000	     -1.46383800	     -2.68719259	     -5.78371743	      5.96171264	      9.93257409	      3.07778385	      0.00000000	     -2.15010408	     -1.17647159	      2.00005514	      4.35926729	    -98.23971138	    -32.10952159	     24.90951472	    113.33430341	     -1.51076332	    -88.03055861	    -49.37847738	     25.50578577	    119.74817918
      2.15000000	     -0.69232198	      4.21879198	    -25.56295050	      0.09012584	      0.99811984	     -0.04383701	     -3.62624773	     -2.11393070	     -5.92859441	      4.45894957	     11.05191293	      3.21541388	      0.00000000	     -1.46211677	     -2.68706228	     -5.78371516	      5.96054406	      9.93205688	      3.07761923	      0.00000000	     -2.14509184	     -1.17481493	      1.99797561	      4.35988772	    -98.24481700	    -32.11134822	     24.91017535	    113.33436933	     -1.50971218	    -88.03758652	    -49.37949198	     25.50636108	    119.74817918
      2.16666670	     -0.68503432	      4.21586845	    -25.57795683	      0.09013640	      0.99804062	     -0.04396476	     -3.63234581	     -2.12613657	     -5.92516334	      4.44887738	     11.04610042	      3.21671177	      0.00000000	     -1.47076036	     -2.67674635	     -5.78366583	      5.95999133	      9.92141337	      3.07507070	      0.00000000	     -2.13107671	     -1.15700565	      1.99643804	      4.36865565	    -98.35332311	    -32.14510569	     24.93156169	    113.33545774	     -1.48822043	    -88.17656838	    -49.40040941	     25.51852846	    119.74817918
      2.18333330	     -0.67504035	      4.21392823	    -25.58992530	      0.09001331	      0.99807879	     -0.04401760	     -3.63037946	     -2.12157804	     -5.92509310	      4.44620145	     11.04606718	      3.21676959	      0.00000000	     -1.46970779	     -2.67591708	     -5.78345128	      5.95882971	      9.92092456	      3.07464348	      0.00000000	     -2.12728054	     -1.15925295	      1.98670184	      4.36975928	    -98.35906986	    -32.14821304	     24.93130988	    113.33564341	     -1.48735231	    -88.18191299	    -49.40116445	     25.51813593	    119.74817918
      2.20000000	     -0.66695182	      4.21131742	    -25.60898743	      0.08986453	      0.99809997	     -0.04408452	     -3.62740208	     -2.12346915	     -5.92545801	      4.43957014	     11.04580178	      3.21644031	      0.00000000	     -1.47218997	     -2.67240031	     -5.78282467	      5.95928998	      9.91933838	      3.07426543	      0.00000000	     -2.12250478	     -1.15277297	      1.97295065	      4.37197748	    -98.37205789	    -32.15439161	     24.93182328	    113.33595620	     -1.48383379	    -88.20359326	    -49.40455379	     25.51947761	    119.74817918
      2.21666670	     -0.65886193	      4.21397265	    -25.63315602	      0.08982340	      0.99807582	     -0.04413270	     -3.63932186	     -2.12571751	     -5.92810473	      4.41066717	     11.04253899	      3.21565598	      0.00000000	     -1.47949303	     -2.66781724	     -5.77893929	      5.95617458	      9.91096834	      3.07038598	      0.00000000	     -2.11640053	     -1.15338453	      1.99016107	      4.38014639	    -98.46240375	    -32.19207363	     24.94693246	    113.33819583	     -1.45981467	    -88.32211611	    -49.42892689	     25.51451289	    119.74817918
      2.23333330	     -0.65016901	      4.21224139	    -25.63792237	      0.08965966	      0.99810533	     -0.04420327	     -3.63880414	     -2.12529448	     -5.92819536	      4.40892422	     11.04259776	      3.21561203	      0.00000000	     -1.47795243	     -2.66714056	     -5.77872817	      5.95513916	      9.91089012	      3.07023280	      0.00000000	     -2.11212461	     -1.15132734	      1.98719904	      4.38061059	    -98.46322505	    -32.19329246	     24.94631647	    113.33830266	     -1.45913980	    -88.32495819	    -49.42961328	     25.51399903	    119.74817918
      2.25000000	     -0.64061154	      4.20990459	    -25.66028870	      0.08948734	      0.99811659	     -0.04425344	     -3.63998461	     -2.12770932	     -5.92954728	      4.39999291	     11.04215067	      3.21510672	      0.00000000	     -1.47936172	     -2.66271777	     -5.77708051	      5.95542958	      9.90937421	      3.06986648	      0.00000000	     -2.10428698	     -1.14387630	      1.97672299	      4.38388051	    -98.47991143	    -32.20150618	     24.94618508	    113.33867743	     -1.45367823	    -88.35246617	    -49.43511720	     25.51393874	    119.74817918
      2.26666670	     -0.63530300	      4.21204561	    -25.67721091	      0.08949235	      0.99806659	     -0.04433374	     -3.65544691	     -2.13388400	     -5.93430676	      4.37092413	     11.03890219	      3.21461892	      0.00000000	     -1.48426588	     -2.65578986	     -5.77099147	      5.95618781	      9.90354982	      3.06819208	      0.00000000	     -2.09146884	     -1.13828334	      2.00849134	      4.39326318	    -98.56296334	    -32.23270652	     24.95602420	    113.33989836	     -1.42943684	    -88.46417034	    -49.46014291	     25.50859625	    119.74817918
      2.28333330	     -0.62475886	      4.20986531	    -25.68331352	      0.08933379	      0.99811922	     -0.04438988	     -3.65424456	     -2.13165829	     -5.93446787	      4.36850720	     11.03890036	      3.21470447	      0.00000000	     -1.48207948	     -2.65596171	     -5.77064739	      5.95486637	      9.90361430	      3.06796490	      0.00000000	     -2.08666662	     -1.13913778	      2.00490786	      4.39414577	    -98.56566535	    -32.23431929	     24.95519518	    113.33995927	     -1.42868096	    -88.46675472	    -49.46091691	     25.50768817	    119.74817918
      2.30000000	     -0.61415784	      4.21296227	    -25.73037405	      0.08919565	      0.99807883	     -0.04431937	     -3.67121418	     -2.12915873	     -5.93951979	      4.32083150	     11.03590018	      3.21532213	      0.00000000	     -1.49143014	     -2.64946888	     -5.76148627	      5.95853108	      9.90109811	      3.06193015	      0.00000000	     -2.08017918	     -1.15111378	      2.03321967	      4.40491016	    -98.65544108	    -32.27640587	     24.95319822	    113.34240793	     -1.39882204	    -88.58073135	    -49.49175935	     25.47977918	    119.74817918
      2.31666670	     -0.60593285	      4.20675666	    -25.73845519	      0.08908263	      0.99812764	     -0.04443358	     -3.67110448	     -2.12945803	     -5.93949371	      4.31889377	     11.03600151	      3.21535330	      0.00000000	     -1.48839824	     -2.64857151	     -5.76113165	      5.95703319	      9.90130050	      3.06167385	      0.00000000	     -2.07590576	     -1.15186739	      2.02831394	      4.40549628	    -98.65594135	    -32.27769709	     24.95169200	    113.34251929	     -1.39825006	    -88.58221739	    -49.49233302	     25.47840102	    119.74817918
      2.33333330	     -0.59650344	      4.20343059	    -25.76200726	      0.08900208	      0.99821734	     -0.04448803	     -3.67123398	     -2.13055761	     -5.93977398	      4.31263702	     11.03617884	      3.21530924	      0.00000000	     -1.48794561	     -2.64579220	     -5.75955663	      5.95781280	      9.90140681	      3.06104489	      0.00000000	     -2.07101595	     -1.14772250	      2.01456098	      4.40720546	    -98.66033323	    -32.28212009	     24.94749166	    113.34284603	     -1.39566994	    -88.59258910	    -49.49488441	     25.47490624	    119.74817918
      2.35000000	     -0.58907998	      4.19972473	    -25.76945470	      0.08887480	      0.99821195	     -0.04459685	     -3.67152838	     -2.13278211	     -5.94006501	      4.30925744	     11.03634129	      3.21514524	      0.00000000	     -1.48750666	     -2.64526489	     -5.75857927	      5.95828119	      9.90135711	      3.06081313	      0.00000000	     -2.06608432	     -1.14545302	      2.01277791	      4.40803877	    -98.66382247	    -32.28447517	     24.94570162	    113.34299330	     -1.39381408	    -88.59962394	    -49.49678649	     25.47259666	    119.74817918
      2.36666670	     -0.47269026	      4.17827470	    -25.96626293	      0.08881176	      0.99825315	     -0.04419125	     -3.88370949	     -2.15105701	     -5.77967435	      4.10061360	     11.01040410	      3.30469535	      0.00000000	     -1.64280182	     -2.61482907	     -5.77134086	      5.98646329	      9.95037763	      2.89576585	      0.00000000	     -2.19609985	     -1.20686369	      2.14263992	      4.29133113	    -98.70729483	    -32.55246254	     24.75845070	    113.39734636	     -1.26279113	    -88.82556827	    -49.62599828	     24.98606319	    119.74817918
